<svg xmlns="http://www.w3.org/2000/svg" width="1600" height="1000" viewBox="0 0 1600 1000">
  <defs>
    <linearGradient id="bg" x1="0" y1="0" x2="1" y2="1">
      <stop offset="0" stop-color="#40120f"/>
      <stop offset="1" stop-color="#020617"/>
    </linearGradient>
    <radialGradient id="glow" cx="72%" cy="35%" r="55%">
      <stop offset="0" stop-color="#dc0632" stop-opacity=".45"/>
      <stop offset=".55" stop-color="#dc0632" stop-opacity=".12"/>
      <stop offset="1" stop-color="#000000" stop-opacity="0"/>
    </radialGradient>
    <filter id="shadow" x="-20%" y="-20%" width="140%" height="140%">
      <feDropShadow dx="0" dy="26" stdDeviation="28" flood-color="#000000" flood-opacity=".45"/>
    </filter>
  </defs>
  <rect width="1600" height="1000" fill="url(#bg)"/>
  <rect width="1600" height="1000" fill="url(#glow)"/>
  <path d="M0 780 C260 680 420 820 700 735 C980 650 1140 720 1600 585 L1600 1000 L0 1000 Z" fill="#05070d" opacity=".62"/>
  <g filter="url(#shadow)" opacity=".96">
<g transform="translate(225 330)">
  <path d="M90 230 L120 135 C135 95 170 70 220 70 L580 70 C635 70 670 105 675 160 L710 300 L70 300 L70 255 C70 240 78 232 90 230Z" fill="#f8fafc"/>
  <rect x="210" y="110" width="155" height="95" rx="12" fill="#111827"/>
  <rect x="405" y="110" width="120" height="95" rx="12" fill="#111827"/>
  <circle cx="220" cy="315" r="62" fill="#020617"/>
  <circle cx="220" cy="315" r="28" fill="#94a3b8"/>
  <circle cx="580" cy="315" r="62" fill="#020617"/>
  <circle cx="580" cy="315" r="28" fill="#94a3b8"/>
  <g transform="translate(770 135)">
    <path d="M120 190 C165 120 240 120 295 190" fill="none" stroke="#f8fafc" stroke-width="36" stroke-linecap="round"/>
    <path d="M110 190 L225 125 L300 185 L390 185" fill="none" stroke="#f8fafc" stroke-width="28" stroke-linecap="round" stroke-linejoin="round"/>
    <circle cx="105" cy="220" r="55" fill="#020617"/>
    <circle cx="105" cy="220" r="24" fill="#94a3b8"/>
    <circle cx="392" cy="220" r="55" fill="#020617"/>
    <circle cx="392" cy="220" r="24" fill="#94a3b8"/>
    <path d="M260 100 L310 55" stroke="#dc0632" stroke-width="24" stroke-linecap="round"/>
  </g>
</g></g>
  <text x="90" y="115" font-family="Arial, Helvetica, sans-serif" font-size="38" font-weight="900" fill="#ffffff" opacity=".18" letter-spacing="6">MORE</text>
  <text x="90" y="165" font-family="Arial, Helvetica, sans-serif" font-size="24" font-weight="700" fill="#ffffff" opacity=".12" letter-spacing="3">BOATS • CAMPERS • MOTORCYCLES</text>
</svg>