<svg xmlns="http://www.w3.org/2000/svg" width="1600" height="1000" viewBox="0 0 1600 1000">
  <defs>
    <linearGradient id="bg" x1="0" y1="0" x2="1" y2="1">
      <stop offset="0" stop-color="#0f1e55"/>
      <stop offset="1" stop-color="#020617"/>
    </linearGradient>
    <radialGradient id="glow" cx="72%" cy="35%" r="55%">
      <stop offset="0" stop-color="#dc0632" stop-opacity=".45"/>
      <stop offset=".55" stop-color="#dc0632" stop-opacity=".12"/>
      <stop offset="1" stop-color="#000000" stop-opacity="0"/>
    </radialGradient>
    <filter id="shadow" x="-20%" y="-20%" width="140%" height="140%">
      <feDropShadow dx="0" dy="26" stdDeviation="28" flood-color="#000000" flood-opacity=".45"/>
    </filter>
  </defs>
  <rect width="1600" height="1000" fill="url(#bg)"/>
  <rect width="1600" height="1000" fill="url(#glow)"/>
  <path d="M0 780 C260 680 420 820 700 735 C980 650 1140 720 1600 585 L1600 1000 L0 1000 Z" fill="#05070d" opacity=".62"/>
  <g filter="url(#shadow)" opacity=".96">
<g transform="translate(240 375)">
  <path d="M130 270 L155 150 C170 90 215 62 285 62 L610 62 C720 62 810 115 875 205 L1015 230 C1080 242 1120 288 1120 360 L1120 435 L70 435 L70 330 C70 300 92 280 130 270Z" fill="#f8fafc"/>
  <path d="M285 105 L600 105 C675 105 738 140 792 205 L235 205 L250 135 C258 115 270 105 285 105Z" fill="#0f172a"/>
  <path d="M230 240 L945 240" stroke="#cbd5e1" stroke-width="20" stroke-linecap="round" opacity=".75"/>
  <rect x="145" y="260" width="115" height="52" rx="18" fill="#dc0632"/>
  <rect x="895" y="285" width="145" height="45" rx="20" fill="#fde68a"/>
  <circle cx="300" cy="440" r="88" fill="#020617"/>
  <circle cx="300" cy="440" r="42" fill="#94a3b8"/>
  <circle cx="875" cy="440" r="88" fill="#020617"/>
  <circle cx="875" cy="440" r="42" fill="#94a3b8"/>
  <path d="M120 470 L1080 470" stroke="#ffffff" stroke-width="10" opacity=".25"/>
</g></g>
  <text x="90" y="115" font-family="Arial, Helvetica, sans-serif" font-size="38" font-weight="900" fill="#ffffff" opacity=".18" letter-spacing="6">SUVS</text>
  <text x="90" y="165" font-family="Arial, Helvetica, sans-serif" font-size="24" font-weight="700" fill="#ffffff" opacity=".12" letter-spacing="3">FAMILY • AWD • CROSSOVERS</text>
</svg>